<?xml version="1.0" standalone="no"?>
<!DOCTYPE svg PUBLIC "-//W3C//DTD SVG 20010904//EN"
 "http://www.w3.org/TR/2001/REC-SVG-20010904/DTD/svg10.dtd">
<svg version="1.0" xmlns="http://www.w3.org/2000/svg"
 width="144.000000pt" height="144.000000pt" viewBox="0 0 144.000000 144.000000"
 preserveAspectRatio="xMidYMid meet">
<metadata>
Created by potrace 1.14, written by Peter Selinger 2001-2017
</metadata>
<g transform="translate(0.000000,144.000000) scale(0.100000,-0.100000)"
fill="#000000" stroke="none">
<path d="M0 720 l0 -720 720 0 720 0 0 720 0 720 -720 0 -720 0 0 -720z m670
400 c0 -5 -16 -10 -35 -10 l-35 0 0 -185 0 -185 120 0 120 0 0 185 0 185 -35
0 c-19 0 -35 5 -35 10 0 6 68 10 185 10 108 0 185 -4 185 -9 0 -6 -15 -11 -32
-13 l-33 -3 0 -395 0 -395 33 -3 c17 -2 32 -7 32 -13 0 -5 -77 -9 -185 -9
-117 0 -185 4 -185 10 0 6 16 10 35 10 l35 0 0 195 0 195 -120 0 -120 0 0
-195 0 -195 35 0 c19 0 35 -4 35 -10 0 -6 -68 -10 -185 -10 -108 0 -185 4
-185 9 0 6 15 11 33 13 l32 3 0 395 0 395 -32 3 c-18 2 -33 7 -33 13 0 5 77 9
185 9 117 0 185 -4 185 -10z"/>
</g>
</svg>
